<svg xmlns="http://www.w3.org/2000/svg" width="60" height="60" viewBox="0 0 60 60"><defs><style>.b{fill:#fff;}.c,.e{fill:none;}</style></defs><g transform="translate(12.898 52.06) rotate(-90)"><path class="b" d="M.913,34.616a.911.911,0,0,1-.645-1.556L16.027,17.3.268,1.544A.911.911,0,0,1,1.556.256l16.4,16.4a.911.911,0,0,1,0,1.289l-16.4,16.4A.911.911,0,0,1,.913,34.616Z" transform="translate(25.514 0.002)"/><path class="b" d="M42.829,1.823H.911A.911.911,0,1,1,.911,0H42.829a.911.911,0,1,1,0,1.823Z" transform="translate(0 16.393)"/></g></svg>