<svg xmlns="http://www.w3.org/2000/svg" width="39.163" height="44.5" viewBox="0 0 39.163 44.5"><defs><style>.a{fill:#fff;fill-rule:evenodd;}</style></defs><path class="a" d="M38.293,17.963H8.641L37.122,9.712a.869.869,0,0,0,.593-1.077l-1.49-5.145A4.865,4.865,0,0,0,31.572,0a4.815,4.815,0,0,0-1.339.19L3.492,7.937a4.848,4.848,0,0,0-3.3,5.992l1.456,5.027V39.663A4.842,4.842,0,0,0,6.484,44.5H16.928a.869.869,0,1,0,0-1.738H6.485a3.1,3.1,0,0,1-3.1-3.1V27.835H37.424V39.663a3.1,3.1,0,0,1-3.1,3.1H23.881a.869.869,0,1,0,0,1.738H34.325a4.842,4.842,0,0,0,4.837-4.837V18.832a.869.869,0,0,0-.869-.869ZM22.968,26.1l3.693-6.4h4.8l-3.692,6.4Zm-6.811,0,3.693-6.4h4.8L20.96,26.1Zm-6.81,0,3.692-6.4h4.8L14.15,26.1Zm3.231-11.252L6.395,8.906l4.633-1.342a.862.862,0,0,0,.114.134l6.184,5.939L12.692,14.98a.865.865,0,0,0-.114-.134ZM24.225,3.908l6.184,5.939L25.775,11.19a.847.847,0,0,0-.114-.134L19.477,5.116l4.633-1.342A.862.862,0,0,0,24.225,3.908ZM17.683,5.8l6.184,5.939-4.633,1.342a.847.847,0,0,0-.114-.134L12.936,7.011l4.633-1.342A.918.918,0,0,0,17.683,5.8ZM30.717,1.86a3.073,3.073,0,0,1,.855-.122,3.118,3.118,0,0,1,2.984,2.236L35.8,8.284l-3.487,1.01A.883.883,0,0,0,32.2,9.16L26.019,3.221ZM2.128,11.09A3.076,3.076,0,0,1,3.975,9.607l.511-.148a.884.884,0,0,0,.114.134l6.184,5.939L3.11,17.755l-1.249-4.31a3.077,3.077,0,0,1,.266-2.355ZM3.386,19.7h7.646L7.34,26.1H3.386Zm26.392,6.4,3.692-6.4h3.954v6.4Zm0,0" transform="translate(0 0)"/></svg>