<svg xmlns="http://www.w3.org/2000/svg" width="12.533" height="22.081" viewBox="0 0 12.533 22.081"><defs><style>.a{fill:#000;}</style></defs><path class="a" d="M8.242,22.081H4.705A1.072,1.072,0,0,1,3.634,21.01V13.034H1.571A1.072,1.072,0,0,1,.5,11.963V8.545A1.072,1.072,0,0,1,1.571,7.474H3.634V5.763A5.827,5.827,0,0,1,5.175,1.588,5.55,5.55,0,0,1,9.267,0l2.7,0a1.073,1.073,0,0,1,1.069,1.071V4.248a1.072,1.072,0,0,1-1.071,1.071H10.147c-.554,0-.695.111-.725.145-.05.056-.109.216-.109.657V7.474h2.513a1.089,1.089,0,0,1,.53.135,1.075,1.075,0,0,1,.551.937v3.418a1.072,1.072,0,0,1-1.071,1.071H9.313V21.01a1.072,1.072,0,0,1-1.071,1.071ZM4.929,20.786H8.018V12.454a.716.716,0,0,1,.715-.715h2.878V8.769H8.733a.716.716,0,0,1-.715-.715V6.122a2.2,2.2,0,0,1,.433-1.513,2.194,2.194,0,0,1,1.695-.583h1.592V1.3l-2.473,0c-2.675,0-4.337,1.712-4.337,4.468V8.053a.716.716,0,0,1-.715.715H1.795v2.971H4.214a.716.716,0,0,1,.715.715ZM11.961,1.3h0Zm0,0" transform="translate(-0.5 0)"/></svg>