<svg xmlns="http://www.w3.org/2000/svg" width="16.725" height="16.725" viewBox="0 0 16.725 16.725"><defs><style>.a{fill:#000;}</style></defs><path class="a" d="M12.2,0H4.526A4.532,4.532,0,0,0,0,4.527V12.2a4.532,4.532,0,0,0,4.527,4.527H12.2A4.532,4.532,0,0,0,16.724,12.2V4.527A4.532,4.532,0,0,0,12.2,0Zm3.547,12.2A3.551,3.551,0,0,1,12.2,15.744H4.526A3.551,3.551,0,0,1,.979,12.2V4.527A3.551,3.551,0,0,1,4.526.98H12.2a3.551,3.551,0,0,1,3.547,3.547Zm0,0" transform="translate(0.001 0)"/><path class="a" d="M120.577,116a4.573,4.573,0,1,0,4.573,4.573A4.578,4.578,0,0,0,120.577,116Zm0,8.166a3.593,3.593,0,1,1,3.593-3.593A3.6,3.6,0,0,1,120.577,124.17Zm0,0" transform="translate(-112.215 -112.215)"/><path class="a" d="M359.328,66.285a1.351,1.351,0,1,0,1.351,1.351A1.353,1.353,0,0,0,359.328,66.285Zm0,1.722a.371.371,0,1,1,.371-.371A.371.371,0,0,1,359.328,68.007Zm0,0" transform="translate(-346.283 -64.12)"/></svg>