<svg xmlns="http://www.w3.org/2000/svg" width="50.556" height="46.5" viewBox="0 0 50.556 46.5"><defs><style>.a{fill:none;stroke:#fff;stroke-width:2px;}</style></defs><g transform="translate(1.012 0.508)"><path class="a" d="M12.641,169.751a7.573,7.573,0,0,1-7.164-5.16l-.071-.233a7.383,7.383,0,0,1-.35-2.193V148.375L.148,164.755a4.594,4.594,0,0,0,3.22,5.573L34.646,178.7a4.64,4.64,0,0,0,1.165.15,4.51,4.51,0,0,0,4.371-3.307L42,169.751Zm0,0" transform="translate(0 -133.861)"/><path class="a" d="M153.366,72.583a4.046,4.046,0,1,0-4.046-4.046A4.049,4.049,0,0,0,153.366,72.583Zm0,0" transform="translate(-135.162 -57.932)"/><path class="a" d="M120.717.492H90.377A5.064,5.064,0,0,0,85.32,5.549V27.8a5.064,5.064,0,0,0,5.057,5.057h30.341a5.064,5.064,0,0,0,5.057-5.057V5.549A5.064,5.064,0,0,0,120.717.492ZM90.377,4.538h30.341a1.012,1.012,0,0,1,1.011,1.011V19.908l-6.39-7.456a3.623,3.623,0,0,0-2.713-1.244,3.535,3.535,0,0,0-2.7,1.276L102.412,21.5l-2.447-2.441a3.55,3.55,0,0,0-5.016,0l-5.583,5.581V5.549A1.012,1.012,0,0,1,90.377,4.538Zm0,0" transform="translate(-77.231)"/></g></svg>