<svg xmlns="http://www.w3.org/2000/svg" width="22.082" height="16.725" viewBox="0 0 22.082 16.725"><defs><style>.a{fill:#fff;}</style></defs><path class="a" d="M197.15,109.3l-4.878-2.669a.9.9,0,0,0-1.326.786v5.293a.894.894,0,0,0,1.32.789l4.878-2.623a.9.9,0,0,0,.006-1.575Zm-4.91,2.744v-3.956l3.646,1.995Zm0,0" transform="translate(-182.711 -101.929)"/><path class="a" d="M21.918,3.947v-.01a5.05,5.05,0,0,0-.973-2.563A3.593,3.593,0,0,0,18.564.259l-.11-.013-.039,0C15.5.029,11.088,0,11.044,0h-.008c-.044,0-4.453.029-7.4.241L3.6.246,3.5.258a3.5,3.5,0,0,0-2.366,1.15A5.292,5.292,0,0,0,.164,3.925l0,.023C.155,4.021,0,5.782,0,7.549V9.2c0,1.768.156,3.528.162,3.6v.011a5,5,0,0,0,.97,2.531,3.667,3.667,0,0,0,2.459,1.1c.09.01.167.019.22.028l.051.007c1.686.16,6.97.239,7.194.243h.013c.044,0,4.453-.029,7.372-.241l.039,0,.124-.014a3.422,3.422,0,0,0,2.346-1.122,5.292,5.292,0,0,0,.965-2.516l0-.023c.007-.074.163-1.835.163-3.6V7.549c0-1.768-.156-3.528-.163-3.6ZM20.787,9.2c0,1.636-.143,3.321-.156,3.475A4.108,4.108,0,0,1,20,14.47a2.128,2.128,0,0,1-1.527.709l-.138.016c-2.824.2-7.066.236-7.261.237-.219,0-5.427-.083-7.061-.235-.084-.014-.174-.024-.27-.035a2.42,2.42,0,0,1-1.655-.691l-.012-.013a3.727,3.727,0,0,1-.622-1.775c-.01-.117-.157-1.822-.157-3.481V7.549c0-1.634.143-3.317.156-3.475a4.025,4.025,0,0,1,.635-1.793,2.233,2.233,0,0,1,1.56-.738l.105-.013c2.865-.205,7.137-.236,7.291-.237s4.424.032,7.264.237l.114.013A2.317,2.317,0,0,1,20,2.262l.005.006a3.787,3.787,0,0,1,.622,1.8c.01.11.157,1.819.157,3.481Zm0,0" transform="translate(0.001 0)"/></svg>