<svg xmlns="http://www.w3.org/2000/svg" width="205.776" height="47.159" viewBox="0 0 205.776 47.159"><defs><style>.a{fill:#fff;}</style></defs><g transform="translate(-140 -58.42)"><path class="a" d="M1.372,16.55a7.985,7.985,0,0,0,8.1,9.223H26.716A10.822,10.822,0,0,0,37.142,16.55l1.845-14.2H22.064l-.882,6.737h8.5l-.722,5.694a3.436,3.436,0,0,1-3.288,2.887H12.841a2.471,2.471,0,0,1-2.486-2.887L13.643-10.4a3.505,3.505,0,0,1,3.288-2.887H29.764A2.432,2.432,0,0,1,32.25-10.4l-.561,4.331H40.11l.8-6.1a7.929,7.929,0,0,0-8.02-9.223H15.648A10.905,10.905,0,0,0,5.141-12.163ZM46.606-12.965H61.765L56.792,24.971h8.662l4.973-37.936H85.5l1.043-7.619h-38.9Z" transform="translate(259.229 79.807)"/><path class="a" d="M1.347,4.028a5.349,5.349,0,0,0,5.427,6.179H18.326a7.25,7.25,0,0,0,6.985-6.179L25.848,0H20.206L19.83,2.846a2.3,2.3,0,0,1-2.2,1.934h-8.6A1.656,1.656,0,0,1,7.365,2.846l2.2-16.871a2.348,2.348,0,0,1,2.2-1.934h8.6a1.629,1.629,0,0,1,1.666,1.934l-.376,2.9H27.3l.537-4.083a5.312,5.312,0,0,0-5.373-6.179H10.911a7.305,7.305,0,0,0-7.038,6.179ZM52.5,9.669l.7-5.427H37.883l3.331-25.091H35.358L31.328,9.669Zm4.728-5.642a5.274,5.274,0,0,0,5.319,6.179H74.419a7.361,7.361,0,0,0,7.092-6.179l3.277-24.876H78.932L75.762,2.846a2.258,2.258,0,0,1-2.2,1.934h-8.65a1.733,1.733,0,0,1-1.773-1.934l3.17-23.694H60.5ZM88.012,9.669h16.6a6.794,6.794,0,0,0,6.555-5.8l.645-4.728A4.406,4.406,0,0,0,108-5.912a5.852,5.852,0,0,0,4.3-4.782l.591-4.352a5.039,5.039,0,0,0-5.051-5.8h-15.8ZM94.567,4.3l1.075-7.9H104.4a1.588,1.588,0,0,1,1.666,1.881l-.537,4.083a2.258,2.258,0,0,1-2.2,1.934ZM96.233-8.061l1.021-7.791h7.952a1.656,1.656,0,0,1,1.666,1.934l-.537,3.976a2.156,2.156,0,0,1-2.149,1.881Z" transform="translate(138.702 95.373)"/><path class="a" d="M.7-.241A3.834,3.834,0,0,0,2.689.3C4.283.3,5.325-.6,5.325-1.934c0-1.188-.748-1.822-2.018-2.31C2.25-4.683,1.7-5.041,1.7-5.855A1.364,1.364,0,0,1,3.21-7.205a2.632,2.632,0,0,1,1.562.472l.293-.635A3.057,3.057,0,0,0,3.34-7.856,2.193,2.193,0,0,0,.932-5.741c0,.944.7,1.643,1.985,2.131C4.039-3.154,4.56-2.7,4.56-1.836c0,.814-.586,1.481-1.822,1.481A3.455,3.455,0,0,1,.981-.892ZM13.395-7.677h-.781v4.865a2.811,2.811,0,0,1-.146.862,2.583,2.583,0,0,1-2.31,1.578c-1.546,0-2.066-1.22-2.066-2.912V-7.677H7.31v4.539C7.31-.193,8.986.312,9.978.312a3,3,0,0,0,2.668-1.578h.033l.049,1.4h.732c-.049-.6-.065-1.22-.065-1.9ZM16,3.354h.781V-1.136h.033A2.952,2.952,0,0,0,19.464.312c1.887,0,3.547-1.432,3.547-4.214,0-2.294-1.35-3.954-3.368-3.954a3.118,3.118,0,0,0-2.88,1.66H16.73l-.049-1.481h-.748c.049.748.065,1.513.065,2.489Zm.781-7.826a3.182,3.182,0,0,1,.114-.667A2.711,2.711,0,0,1,19.48-7.205c1.773,0,2.75,1.578,2.75,3.335,0,2.083-1.025,3.531-2.815,3.531a2.639,2.639,0,0,1-2.571-1.985,2.573,2.573,0,0,1-.065-.618Zm14.09.618a2.006,2.006,0,0,0,.033-.472c0-1.123-.488-3.531-3.043-3.531-2.018,0-3.514,1.627-3.514,4.23C24.345-1.332,25.744.3,27.99.3a5.152,5.152,0,0,0,2.457-.5l-.2-.6a4.538,4.538,0,0,1-2.164.439c-1.627,0-2.977-.992-2.977-3.482Zm-5.727-.618a2.789,2.789,0,0,1,2.62-2.733c1.887,0,2.343,1.643,2.327,2.733Zm7.728,4.6h.781V-4.179a3.663,3.663,0,0,1,.065-.748c.212-1.253.976-2.18,2.05-2.18a1.337,1.337,0,0,1,.374.033v-.748a2,2,0,0,0-.325-.033A2.427,2.427,0,0,0,33.6-6.1h-.049l-.033-1.578h-.716c.049.765.065,1.562.065,2.343Zm9.811-.96a4.334,4.334,0,0,1-1.952.456,3.084,3.084,0,0,1-3.091-3.384,3.142,3.142,0,0,1,3.173-3.433,3.666,3.666,0,0,1,1.839.456l.277-.635a4,4,0,0,0-2.05-.488,3.927,3.927,0,0,0-4.019,4.165A3.681,3.681,0,0,0,40.6.3a5.326,5.326,0,0,0,2.294-.5Zm6.947-3.954c0-1.383-.439-3.075-2.7-3.075a4.317,4.317,0,0,0-2.294.667l.244.569a3.409,3.409,0,0,1,1.969-.586c1.855-.016,2,1.529,2,2.294V-4.7c-3.189-.033-4.767,1.058-4.767,2.864A2.122,2.122,0,0,0,46.375.312a2.985,2.985,0,0,0,2.506-1.3h.033L49.027.133h.716a11.713,11.713,0,0,1-.114-1.855Zm-.781,2.408a1.309,1.309,0,0,1-.081.472,2.336,2.336,0,0,1-2.31,1.562,1.493,1.493,0,0,1-1.562-1.627c0-1.871,2.245-2.131,3.954-2.083ZM52.135.133h.781V-4.179a3.664,3.664,0,0,1,.065-.748c.212-1.253.976-2.18,2.05-2.18a1.337,1.337,0,0,1,.374.033v-.748a2,2,0,0,0-.325-.033A2.427,2.427,0,0,0,52.867-6.1h-.049l-.033-1.578H52.07c.049.765.065,1.562.065,2.343Zm4.214-.374A3.834,3.834,0,0,0,58.334.3C59.928.3,60.97-.6,60.97-1.934c0-1.188-.748-1.822-2.018-2.31-1.058-.439-1.611-.8-1.611-1.611a1.364,1.364,0,0,1,1.513-1.35,2.632,2.632,0,0,1,1.562.472l.293-.635a3.057,3.057,0,0,0-1.725-.488,2.193,2.193,0,0,0-2.408,2.115c0,.944.7,1.643,1.985,2.131,1.123.456,1.643.911,1.643,1.773,0,.814-.586,1.481-1.822,1.481a3.455,3.455,0,0,1-1.757-.537ZM69.626-7.856c-1.936,0-3.693,1.481-3.693,4.149,0,2.441,1.562,4.019,3.579,4.019a3.792,3.792,0,0,0,3.742-4.165C73.254-6.229,71.79-7.856,69.626-7.856Zm-.016.651c2.066,0,2.864,1.969,2.864,3.4,0,2-1.285,3.466-2.912,3.466-1.595,0-2.847-1.464-2.847-3.417C66.713-5.432,67.608-7.205,69.609-7.205Zm4.6-.472L76.622.133h.683L78.851-4.2A26.967,26.967,0,0,0,79.7-6.88h.033c.212.879.488,1.725.814,2.668L82.024.133h.667l2.6-7.81h-.8L83.114-3.251c-.309.944-.553,1.725-.716,2.457h-.033c-.2-.732-.439-1.529-.765-2.473L80.1-7.677h-.732L77.81-3.235c-.309.895-.586,1.725-.781,2.441H77c-.179-.748-.407-1.529-.667-2.441L75.011-7.677ZM86.9.133h.781V-4.7a3.024,3.024,0,0,1,.1-.7,2.51,2.51,0,0,1,2.343-1.79c1.611,0,2.164,1.285,2.164,2.7V.133h.781V-4.553c0-2.929-1.985-3.3-2.733-3.3a2.949,2.949,0,0,0-2.685,1.594h-.033l-.049-1.416H86.84c.049.618.065,1.155.065,1.871ZM101.5-3.853a2.005,2.005,0,0,0,.033-.472c0-1.123-.488-3.531-3.043-3.531-2.018,0-3.514,1.627-3.514,4.23,0,2.294,1.4,3.921,3.645,3.921a5.152,5.152,0,0,0,2.457-.5l-.2-.6a4.538,4.538,0,0,1-2.164.439c-1.627,0-2.978-.992-2.978-3.482Zm-5.727-.618a2.789,2.789,0,0,1,2.62-2.733c1.887,0,2.343,1.643,2.327,2.733ZM103.5.133h.781V-4.179a3.662,3.662,0,0,1,.065-.748c.212-1.253.976-2.18,2.05-2.18a1.337,1.337,0,0,1,.374.033v-.748a2,2,0,0,0-.325-.033A2.427,2.427,0,0,0,104.233-6.1h-.049l-.033-1.578h-.716c.049.765.065,1.562.065,2.343Zm4.214-.374A3.834,3.834,0,0,0,109.7.3c1.594,0,2.636-.895,2.636-2.229,0-1.188-.748-1.822-2.018-2.31-1.058-.439-1.611-.8-1.611-1.611a1.364,1.364,0,0,1,1.513-1.35,2.632,2.632,0,0,1,1.562.472l.293-.635a3.057,3.057,0,0,0-1.725-.488,2.193,2.193,0,0,0-2.408,2.115c0,.944.7,1.643,1.985,2.131,1.123.456,1.643.911,1.643,1.773,0,.814-.586,1.481-1.822,1.481a3.455,3.455,0,0,1-1.757-.537Z" transform="translate(142.2 66.276)"/></g></svg>